<svg xmlns="http://www.w3.org/2000/svg" width="500" height="500" fill="white">
    <path d="M49.5 171.722222222222h400v133.333333333333h-200v22.222222222223h-88.888888888889v-22.222222222223H49.5V171.722222222222zm22.222222222222 111.111111111111h44.444444444445v-66.666666666667h22.222222222222v66.666666666667h22.222222222222v-88.888888888889H71.722222222222v88.888888888889zm111.111111111111-88.888888888889v111.111111111111h44.444444444445v-22.222222222222h44.444444444444v-88.888888888889h-88.888888888889zm44.444444444445 22.222222222222H249.5v44.444444444445h-22.222222222222v-44.444444444445zm66.666666666666-22.222222222222v88.888888888889h44.444444444445v-66.666666666667h22.222222222222v66.666666666667h22.222222222222v-66.666666666667h22.222222222222v66.666666666667h22.222222222223v-88.888888888889H293.944444444444z" fill="#cb3837" />
    <path d="M71.722222222222 282.833333333333h44.444444444444v-66.666666666667h22.222222222223v66.666666666667h22.222222222222v-88.888888888889H71.722222222222zm111.111111111111-88.888888888889v111.111111111111h44.444444444444v-22.222222222222h44.444444444445v-88.888888888889h-88.888888888889zM249.5 260.611111111111h-22.222222222223v-44.444444444445H249.5v44.444444444445zm44.444444444444-66.666666666667v88.888888888889h44.444444444444v-66.666666666667h22.222222222223v66.666666666667h22.222222222222v-66.666666666667h22.222222222222v66.666666666667h22.222222222222v-88.888888888889z" />
</svg>